<svg width="34" height="32" viewBox="0 0 34 32" fill="none" xmlns="http://www.w3.org/2000/svg">
<path d="M3.33333 0C1.48333 0 0 1.48333 0 3.33333V20C0 20.8841 0.351189 21.7319 0.976311 22.357C1.60143 22.9821 2.44928 23.3333 3.33333 23.3333H16.6667V31.6667L21.6667 26.6667L26.6667 31.6667V23.3333H30C30.8841 23.3333 31.7319 22.9821 32.357 22.357C32.9821 21.7319 33.3333 20.8841 33.3333 20V3.33333C33.3333 2.44928 32.9821 1.60143 32.357 0.976311C31.7319 0.351189 30.8841 0 30 0H3.33333ZM16.6667 3.33333L21.6667 6.66667L26.6667 3.33333V9.16667L31.6667 11.6667L26.6667 14.1667V20L21.6667 16.6667L16.6667 20V14.1667L11.6667 11.6667L16.6667 9.16667V3.33333ZM3.33333 3.33333H11.6667V6.66667H3.33333V3.33333ZM3.33333 10H8.33333V13.3333H3.33333V10ZM3.33333 16.6667H11.6667V20H3.33333V16.6667Z" fill="url(#paint0_linear_5103_409)"/>
<defs>
<linearGradient id="paint0_linear_5103_409" x1="0" y1="15.8333" x2="33.3333" y2="15.8333" gradientUnits="userSpaceOnUse">
<stop stop-color="#1A2856"/>
<stop offset="1" stop-color="#334EA9"/>
</linearGradient>
</defs>
</svg>
